M48
; DRILL file {KiCad (7.0.0-0)} date Sunday, 14 January 2024 at 16:53:13
; FORMAT={-:-/ absolute / metric / decimal}
; #@! TF.CreationDate,2024-01-14T16:53:13+09:00
; #@! TF.GenerationSoftware,Kicad,Pcbnew,(7.0.0-0)
; #@! TF.FileFunction,Plated,1,2,PTH
FMAT,2
METRIC
; #@! TA.AperFunction,Plated,PTH,ViaDrill
T1C0.300
; #@! TA.AperFunction,Plated,PTH,ViaDrill
T2C0.400
; #@! TA.AperFunction,Plated,PTH,ComponentDrill
T3C1.000
; #@! TA.AperFunction,Plated,PTH,ComponentDrill
T4C2.200
; #@! TA.AperFunction,Plated,PTH,ComponentDrill
T5C3.200
%
G90
G05
T1
X104.48Y-125.38
X105.89Y-139.14
X107.47Y-121.96
X107.79Y-110.07
X111.67Y-127.98
X112.1Y-106.32
X113.185Y-121.96
X114.28Y-130.76
X115.09Y-116.88
X115.725Y-121.96
X116.5Y-127.88
X117.04Y-131.54
X117.81Y-138.35
X118.265Y-121.96
X119.07Y-127.94
X119.21Y-131.24
X120.17Y-116.88
X120.805Y-121.96
X121.96Y-130.03
X122.19Y-135.45
X123.345Y-121.96
X124.57Y-131.53
X125.25Y-115.61
X125.885Y-121.96
X126.52Y-105.45
X126.59Y-130.94
X127.13Y-133.25
X128.425Y-121.96
X129.44Y-127.96
X130.965Y-121.96
X131.88Y-132.05
X132.87Y-113.07
X134.14Y-105.45
X134.55Y-137.53
X134.775Y-121.96
X134.99Y-132.63
X136.05Y-127.94
X136.37Y-135.59
X136.68Y-113.07
X136.68Y-121.96
X136.85Y-109.5
X139.21Y-137.6
X140.23Y-129.15
X140.97Y-131.27
X140.98Y-133.83
X141.04Y-110.15
X141.125Y-121.96
X141.76Y-105.45
X142.92Y-129.49
X143.665Y-121.96
X143.78Y-131.34
X145.09Y-134.46
X145.09Y-136.77
X146.205Y-121.96
X146.48Y-131.32
X147.84Y-136.84
X147.88Y-131.16
X147.88Y-134.46
X148.745Y-121.96
X149.24Y-131.32
X149.38Y-105.45
X150.63Y-134.43
X150.66Y-136.93
X150.72Y-109.48
X151.285Y-121.96
X151.92Y-112.435
X152.37Y-137.66
X153.35Y-134.4
X153.53Y-109.51
X153.825Y-113.705
X154.49Y-131.71
X154.84Y-137.71
X156.42Y-127.71
X157.0Y-105.45
X157.52Y-137.79
X157.56Y-133.93
X157.65Y-110.13
X158.62Y-127.9
X160.3Y-137.75
X161.2Y-127.97
X161.79Y-109.53
X162.74Y-137.34
X163.2Y-110.16
X163.78Y-127.94
X164.5Y-134.54
X164.62Y-105.45
X164.98Y-139.53
X166.28Y-127.94
X167.19Y-137.25
X167.38Y-109.54
X168.43Y-134.01
X168.63Y-128.09
X168.7Y-112.85
X169.45Y-131.0
X169.7Y-121.96
X170.1Y-137.17
X171.38Y-139.57
X172.24Y-105.45
X172.24Y-115.61
T2
X109.21Y-121.26
X111.74Y-121.21
X114.29Y-119.56
X116.84Y-114.61
X119.37Y-119.56
X120.649Y-136.371
X121.91Y-117.436
X124.45Y-116.786
X126.949Y-116.111
X132.07Y-115.386
X133.84Y-121.11
X149.84Y-121.12
X154.89Y-114.61
X156.265Y-116.111
X159.04Y-116.46
X160.44Y-115.41
X161.83Y-117.436
X164.64Y-117.61
X166.04Y-118.21
X167.34Y-118.91
X170.14Y-119.91
T3
X109.21Y-123.65
X109.21Y-126.19
X111.75Y-123.65
X111.75Y-126.19
X114.29Y-123.65
X114.29Y-126.19
X116.83Y-123.65
X116.83Y-126.19
X119.37Y-123.65
X119.37Y-126.19
X121.91Y-123.65
X121.91Y-126.19
X124.45Y-123.65
X124.45Y-126.19
X126.99Y-123.65
X126.99Y-126.19
X129.53Y-123.65
X129.53Y-126.19
X132.07Y-123.65
X132.07Y-126.19
X134.61Y-123.65
X134.61Y-126.19
X136.795Y-132.78
X136.88Y-111.0
X137.15Y-123.65
X137.15Y-126.19
X138.18Y-135.62
X138.265Y-108.16
X139.565Y-132.78
X139.65Y-111.0
X139.69Y-123.65
X139.69Y-126.19
X140.95Y-135.62
X141.035Y-108.16
X142.23Y-123.65
X142.23Y-126.19
X142.335Y-132.78
X142.42Y-111.0
X143.72Y-135.62
X143.805Y-108.16
X144.77Y-123.65
X144.77Y-126.19
X145.105Y-132.78
X145.19Y-111.0
X146.49Y-135.62
X146.575Y-108.16
X147.31Y-123.65
X147.31Y-126.19
X147.875Y-132.78
X147.96Y-111.0
X149.26Y-135.62
X149.345Y-108.16
X149.85Y-123.65
X149.85Y-126.19
X150.645Y-132.78
X150.73Y-111.0
X152.03Y-135.62
X152.115Y-108.16
X152.39Y-123.65
X152.39Y-126.19
X153.415Y-132.78
X153.5Y-111.0
X154.8Y-135.62
X154.885Y-108.16
X154.93Y-123.65
X154.93Y-126.19
X156.185Y-132.78
X156.27Y-111.0
X157.47Y-123.65
X157.47Y-126.19
X157.57Y-135.62
X157.655Y-108.16
X158.955Y-132.78
X159.04Y-111.0
X160.01Y-123.65
X160.01Y-126.19
X160.34Y-135.62
X160.425Y-108.16
X161.725Y-132.78
X161.81Y-111.0
X162.55Y-123.65
X162.55Y-126.19
X163.11Y-135.62
X163.195Y-108.16
X164.495Y-132.78
X164.58Y-111.0
X165.09Y-123.65
X165.09Y-126.19
X165.88Y-135.62
X165.965Y-108.16
X167.265Y-132.78
X167.35Y-111.0
X167.63Y-123.65
X167.63Y-126.19
X168.65Y-135.62
X168.735Y-108.16
X170.035Y-132.78
X170.12Y-111.0
X170.17Y-123.65
X170.17Y-126.19
T4
X107.37Y-105.73
T5
X129.865Y-134.2
X129.95Y-109.58
X176.965Y-134.2
X177.05Y-109.58
T0
M30
